# xmcd
#
# Track frame offsets:
#	150
#	5965
#	27885
#	52110
#	77845
#	107205
#	134365
#	150180
#	163345
#	181185
#
# Disc length: 2666 seconds
#
# Revision: 3
# Processed by: cddbd v1.5.1PL0 Copyright (c) Steve Scherf et al.
# Submitted via: EasyCDDAExtractor 8.0.2.1
#
DISCID=7e0a680a
DTITLE=Ozzy Osbourne - Stadthalle Offenbach 20-01-83
DYEAR=1983
DGENRE=Hard Rock
TTITLE0=Intro
TTITLE1=I Don't Know
TTITLE2=Mr Crowley
TTITLE3=Crazy Train
TTITLE4=Suicide Solution
TTITLE5=Revelation (Mother Earth)
TTITLE6=Steal Away (The Night)
TTITLE7=Drum Solo
TTITLE8=Iron Man
TTITLE9=Children Of The Grave
EXTD=
EXTT0=
EXTT1=
EXTT2=
EXTT3=
EXTT4=
EXTT5=
EXTT6=
EXTT7=
EXTT8=
EXTT9=
PLAYORDER=
